<?xml version="1.0" encoding="UTF-8" standalone="no"?>
<svg
   xmlns:dc="http://purl.org/dc/elements/1.1/"
   xmlns:cc="http://creativecommons.org/ns#"
   xmlns:rdf="http://www.w3.org/1999/02/22-rdf-syntax-ns#"
   xmlns:svg="http://www.w3.org/2000/svg"
   xmlns="http://www.w3.org/2000/svg"
   xmlns:sodipodi="http://sodipodi.sourceforge.net/DTD/sodipodi-0.dtd"
   xmlns:inkscape="http://www.inkscape.org/namespaces/inkscape"
   id="FABLAB_STREAMPI"
   data-name="FABLAB STREAMPI"
   viewBox="0 0 1654.66 787.26"
   version="1.1"
   sodipodi:docname="Fablab.svg"
   inkscape:version="1.0.1 (3bc2e813f5, 2020-09-07)">
  <metadata
     id="metadata116">
    <rdf:RDF>
      <cc:Work
         rdf:about="">
        <dc:format>image/svg+xml</dc:format>
        <dc:type
           rdf:resource="http://purl.org/dc/dcmitype/StillImage" />
      </cc:Work>
    </rdf:RDF>
  </metadata>
  <sodipodi:namedview
     pagecolor="#ffffff"
     bordercolor="#666666"
     borderopacity="1"
     objecttolerance="10"
     gridtolerance="10"
     guidetolerance="10"
     inkscape:pageopacity="0"
     inkscape:pageshadow="2"
     inkscape:window-width="1920"
     inkscape:window-height="1057"
     id="namedview114"
     showgrid="false"
     inkscape:zoom="0.6526994"
     inkscape:cx="268.48814"
     inkscape:cy="300.56587"
     inkscape:window-x="-8"
     inkscape:window-y="-8"
     inkscape:window-maximized="1"
     inkscape:current-layer="SCREEN" />
  <defs
     id="defs4">
    <style
       id="style2">.cls-1,.cls-2,.cls-3,.cls-5,.cls-6{fill:none;stroke-miterlimit:10;}.cls-1,.cls-2,.cls-3,.cls-5{stroke:red;}.cls-1,.cls-2{stroke-width:2px;}.cls-2,.cls-5{stroke-linecap:square;}.cls-4{fill:red;}.cls-5,.cls-6{stroke-width:2.13px;}.cls-6{stroke:#39b54a;}.cls-7{font-size:28.35px;fill:#f0f;font-family:MyriadPro-Regular, Myriad Pro;}.cls-8{letter-spacing:-0.02em;}.cls-9{letter-spacing:0em;}</style>
  </defs>
  <g
     id="SCREEN">
    <circle
       class="cls-1"
       cx="681.31"
       cy="321.38"
       r="9.92"
       id="circle6" />
    <circle
       class="cls-1"
       cx="681.31"
       cy="250.51"
       r="22.68"
       id="circle8" />
    <circle
       class="cls-1"
       cx="681.31"
       cy="179.65"
       r="22.68"
       id="circle10" />
    <circle
       class="cls-1"
       cx="57.69"
       cy="321.38"
       r="22.68"
       id="circle12" />
    <circle
       class="cls-1"
       cx="57.69"
       cy="250.51"
       r="22.68"
       id="circle14" />
    <circle
       class="cls-1"
       cx="57.69"
       cy="181.06"
       r="9.92"
       id="circle16" />
    <circle
       class="cls-1"
       cx="548.37"
       cy="349.87"
       r="4.25"
       id="circle18" />
    <circle
       class="cls-1"
       cx="190.64"
       cy="349.87"
       r="4.25"
       id="circle20" />
    <circle
       class="cls-1"
       cx="548.37"
       cy="163.77"
       r="4.25"
       id="circle22" />
    <circle
       class="cls-1"
       cx="190.64"
       cy="163.77"
       r="4.25"
       id="circle24" />
    <rect
       class="cls-1"
       x="210.76"
       y="125.79"
       width="317.48"
       height="269.29"
       id="rect26" />
    <path
       class="cls-2"
       d="M 8.5,476.19 V 447.84 H 0 V 428 H 8.5 V 408.19 H 0 V 388.35 H 8.5 V 368.5 H 0 V 348.68 H 8.5 V 328.84 H 0 V 309 H 8.5 V 289.13 H 0 V 269.29 H 8.5 V 249.45 H 0 V 229.61 H 8.5 V 209.76 H 0 V 189.92 H 8.5 V 170.08 H 0 V 150.24 H 8.5 V 130.39 H 0 V 110.55 H 8.5 V 90.71 H 0 V 70.87 H 8.5 V 51 H 0 V 22.68"
       transform="translate(1,1.06)"
       id="path28"
       sodipodi:nodetypes="ccccccccccccccccccccccccccccccccccccccccccc" />
    <polyline
       class="cls-2"
       points="9.49 477.28 723.84 477.28 729.5 477.28 729.5 448.94 738.01 448.94 738.01 429.09 729.5 429.09 729.5 409.25 738.01 409.25 738.01 389.41 729.5 389.41 729.5 369.57 738.01 369.57 738.01 349.72 729.5 349.72 729.5 329.88 738.01 329.88 738.01 310.04 729.5 310.04 729.5 290.2 738.01 290.2 738.01 270.35 729.5 270.35 729.5 250.51 738.01 250.51 738.01 230.67 729.5 230.67 729.5 210.83 738.01 210.83 738.01 190.98 729.5 190.98 729.5 171.14 738.01 171.14 738.01 151.3 729.5 151.3 729.5 131.46 738.01 131.46 738.01 111.61 729.5 111.61 729.5 91.77 738.01 91.77 738.01 71.93 729.5 71.93 729.5 52.09 738.01 52.09 738.01 23.74 738.01 1.06 1 1.06 1 23.74"
       id="polyline30" />
    <rect
       class="cls-3"
       x="702.99"
       y="316.06"
       width="2.83"
       height="8.5"
       transform="translate(1409.82 641.69) rotate(180)"
       id="rect32" />
    <rect
       class="cls-3"
       x="31.18"
       y="175.75"
       width="2.83"
       height="8.5"
       transform="translate(66.2 361.06) rotate(180)"
       id="rect34" />
  </g>
  <polygon
     id="UNDERSIDE"
     class="cls-2"
     points="1106.51 726.77 1078.16 726.77 1078.16 738.07 1049.82 738.07 1049.82 726.77 1021.47 726.77 1021.47 738.07 993.13 738.07 993.13 726.77 964.78 726.77 964.78 738.07 936.43 738.07 936.43 726.77 908.09 726.77 908.09 738.07 879.74 738.07 879.74 726.77 851.39 726.77 851.39 738.07 823.05 738.07 823.05 726.77 794.7 726.77 794.7 738.07 766.35 738.07 766.35 726.77 738.01 726.73 738.01 704.05 749.35 704.05 749.35 681.38 738.01 681.38 738.01 658.7 749.35 658.7 749.35 636.02 738.01 636.02 738.01 613.35 749.35 613.35 749.35 125.79 738.01 125.79 738.01 103.11 749.35 103.11 749.35 80.43 738.01 80.43 738.01 57.76 749.35 57.76 749.35 35.08 738.01 35.08 738.01 12.44 766.35 12.4 766.35 1.06 794.7 1.06 794.7 12.4 823.05 12.4 823.05 1.06 851.39 1.06 851.39 12.4 879.74 12.4 879.74 1.06 908.09 1.06 908.09 12.4 936.43 12.4 936.43 1.06 964.78 1.06 964.78 12.4 993.13 12.4 993.13 1.06 1021.47 1.06 1021.47 12.4 1049.82 12.4 1049.82 1.06 1078.16 1.06 1078.16 12.4 1106.51 12.4 1106.51 1.06 1134.86 1.06 1134.86 12.4 1154.7 12.4 1154.7 26.57 1143.36 26.57 1143.36 54.92 1154.7 54.92 1154.7 83.27 1143.36 83.27 1143.36 111.61 1154.7 111.61 1154.7 139.96 1143.36 139.96 1143.36 168.31 1154.7 168.31 1154.7 196.65 1143.36 196.65 1143.36 225 1154.7 225 1154.7 253.35 1143.36 253.35 1143.36 281.69 1154.7 281.69 1154.7 310.04 1143.36 310.04 1143.36 338.38 1154.7 338.38 1154.7 400.75 1143.36 400.75 1143.36 429.09 1154.7 429.09 1154.7 457.44 1143.36 457.44 1143.36 485.79 1154.7 485.79 1154.7 514.13 1143.36 514.13 1143.36 542.48 1154.7 542.48 1154.7 570.83 1143.36 570.83 1143.36 599.17 1154.7 599.17 1154.7 627.52 1143.36 627.52 1143.36 655.87 1154.7 655.87 1154.7 684.21 1143.36 684.21 1143.36 712.56 1154.7 712.56 1154.7 726.73 1134.86 726.77 1134.86 738.07 1106.51 738.07 1106.51 726.77" />
  <g
     id="BACK">
    <g
       id="ACHTERKANT">
      <path
         class="cls-2"
         d="M728.5,754H737V725.67H728.5V697.32H737V669H728.5V640.63H737V612.28H728.5V583.94H737V555.59H728.5V527.24H737V498.9H728.5V476.22H8.5v25.51H0v28.35H8.5v28.35H0v28.34H8.5v28.35H0v28.34H8.5v28.35H0v28.35H8.5V728.5H0v28.35H8.5v17h17V785.2H53.86V773.86H82.2V785.2h28.35V773.86H138.9V785.2h28.34V773.86h28.35V785.2h28.35V773.86h28.34V785.2h28.35V773.86H309V785.2h28.34V773.86h62.37V785.2H428V773.86h28.35V785.2h28.34V773.86h28.35V785.2h28.35V773.86h28.34V785.2h28.35V773.86h28.35V785.2H654.8V773.86h28.35V785.2H711.5V773.86h17Z"
         transform="translate(1 1.06)"
         id="path38" />
    </g>
    <path
       d="M280.63,663.31v70.87H450.71V663.31ZM436.54,720H294.81V677.49H436.54Z"
       transform="translate(1 1.06)"
       id="path41" />
    <path
       class="cls-4"
       d="M434.54,679.48V718H296.81V679.48H434.54m2-2H294.81V720H436.54V677.48Z"
       transform="translate(1 1.06)"
       id="path43" />
  </g>
  <g
     id="FRONT">
    <line
       class="cls-5"
       x1="1653.6"
       y1="726.73"
       x2="1653.6"
       y2="12.4"
       id="line46" />
    <polygon
       class="cls-5"
       points="1647.94 738.07 1619.59 738.07 1619.59 726.73 1594.07 726.73 1594.07 704.05 1582.73 704.05 1582.73 681.37 1594.07 681.37 1594.07 658.7 1582.73 658.7 1582.73 636.02 1594.07 636.02 1594.07 613.34 1582.73 613.34 1582.73 125.78 1594.07 125.78 1594.07 103.11 1582.73 103.11 1582.73 80.43 1594.07 80.43 1594.07 57.75 1582.73 57.75 1582.73 35.07 1594.07 35.07 1594.07 12.4 1619.59 12.4 1619.59 1.06 1647.94 1.06 1647.94 12.4 1653.6 12.4 1653.6 726.73 1647.94 726.73 1647.94 738.07"
       id="polygon48" />
    <polyline
       class="cls-5"
       points="1619.59 1.06 1619.59 12.4 1594.07 12.4"
       id="polyline50" />
    <polyline
       class="cls-5"
       points="1647.94 1.06 1647.94 12.4 1653.6 12.4"
       id="polyline52" />
    <line
       class="cls-5"
       x1="1582.73"
       y1="658.7"
       x2="1582.73"
       y2="636.02"
       id="line54" />
    <line
       class="cls-5"
       x1="1582.73"
       y1="704.05"
       x2="1582.73"
       y2="681.37"
       id="line56" />
    <polyline
       class="cls-5"
       points="1582.73 704.05 1594.07 704.05 1594.07 726.73"
       id="polyline58" />
    <polyline
       class="cls-5"
       points="1582.73 658.7 1594.07 658.7 1594.07 681.37 1582.73 681.37"
       id="polyline60" />
    <polyline
       class="cls-5"
       points="1582.73 613.34 1594.07 613.34 1594.07 636.02 1582.73 636.02"
       id="polyline62" />
    <line
       class="cls-5"
       x1="1582.73"
       y1="103.11"
       x2="1582.73"
       y2="80.43"
       id="line64" />
    <line
       class="cls-5"
       x1="1647.94"
       y1="738.07"
       x2="1647.94"
       y2="726.73"
       id="line66" />
    <polyline
       class="cls-5"
       points="1594.07 726.73 1619.59 726.73 1619.59 738.07"
       id="polyline68" />
    <line
       class="cls-5"
       x1="1619.59"
       y1="738.07"
       x2="1647.94"
       y2="738.07"
       id="line70" />
    <polyline
       class="cls-5"
       points="1647.94 1.06 1639.43 1.06 1619.59 1.06"
       id="polyline72" />
    <polyline
       class="cls-5"
       points="1594.07 12.4 1594.07 35.07 1582.73 35.07"
       id="polyline74" />
    <polyline
       class="cls-5"
       points="1582.73 57.75 1594.07 57.75 1594.07 80.43 1582.73 80.43"
       id="polyline76" />
    <line
       class="cls-5"
       x1="1582.73"
       y1="57.75"
       x2="1582.73"
       y2="35.07"
       id="line78" />
    <polyline
       class="cls-5"
       points="1582.73 103.11 1594.07 103.11 1594.07 125.78 1582.73 125.78"
       id="polyline80" />
  </g>
  <g
     id="SIDES">
    <g
       id="SIDE">
      <path
         class="cls-6"
         d="M1391.82,363.56"
         transform="translate(1 1.06)"
         id="path83" />
      <path
         class="cls-5"
         d="M1463.25,401.62l-14.15-24.57,9.66-5.37-9.91-17.2-9.65,5.38-9.9-17.2,9.65-5.37-9.9-17.19-9.65,5.36-9.9-17.19,9.65-5.37-9.9-17.2-9.66,5.37-9.9-17.19,9.65-5.37-9.9-17.19-9.65,5.36-9.9-17.19,9.65-5.37-9.9-17.2-9.66,5.37-9.9-17.19,9.65-5.37-9.9-17.19-9.65,5.36-9.9-17.19,9.65-5.37-9.9-17.2-9.66,5.37-9.9-17.19,9.65-5.37-9.9-17.19-9.65,5.36-9.9-17.19,9.65-5.37-9.9-17.2-9.66,5.37-9.9-17.19,9.66-5.37L1270.61,45,1261,50.34l-9.9-17.19,9.65-5.37-14.26-24.7-1.58.09-22.67,0,0,11.34-28.34,0V3.11h-8.5l-28.34,0,0,28.35,11.3,0,0,28.34-11.3,0,0,28.34,11.3,0,0,28.34-11.29,0,0,28.34,11.3,0,0,28.34-11.29,0,0,28.35,11.29,0,0,28.35-11.31,0,0,28.35,11.29,0,0,28.35-11.3,0,0,28.35,11.3,0,0,28.36-11.3,0,0,28.36,11.3,0,0,28.34-11.3,0,0,19.84,28.34,0,.06-11.3,28.34,0,0,11.3,28.35,0,.05-11.3,28.35,0-.06,11.3,28.35,0,0-11.3,28.36,0-.07,11.3,28.35,0,.06-11.29,28.34,0-.06,11.3,28.35,0,.06-11.29,28.35,0-.06,11.3,25.52,0,8.46.06ZM1194.93,35.32l27.64,0,.7,8.5h-.7l-27.65,0Zm0,25.51V52.32l35.94,0,.9,8.51h-.91Zm0,8.5,47,0,1.19,8.51h-1.2l-47-.06Zm0,25.51v-8.5l55.3.06,1.39,8.51h-1.4Zm0,8.51,66.36.07,1.67,8.51h-1.68l-66.35-.08Zm0,17,74.65.08,1.89,8.52h-1.9l-74.64-.08Zm0,17,85.7.09,2.16,8.52h-2.17l-85.7-.09Zm0,17,94,.11,2.38,8.5h-2.39l-94-.1Zm0,25.51v-8.5l105,.12,2.66,8.5h-2.67Zm0,8.5,116.11.14,2.93,8.51h-2.94l-116.11-.13Zm0,17,124.41.13,3.14,8.51h-3.15l-124.4-.14Zm0,25.5v-8.49l135.47.14,3.43,8.51h-3.44Zm0,8.51,143.76.16,3.63,8.51h-3.64l-143.77-.15Zm0,25.51,0-8.5,154.82.17,3.91,8.51h-3.92Zm0,8.51,163.11.18,4.13,8.5h-4.14l-163.11-.18Zm0,17,174.17.18,4.4,8.52h-4.41l-174.17-.2Zm0,17,182.46.2,4.62,8.51h-4.62l-182.47-.2Zm0,17,193.51.21,4.9,8.51h-4.9L1194.6,333Zm0,25.51v-8.5l204.58.22,5.18,8.51h-5.18Zm0,8.51,212.87.23,5.38,8.51h-5.38L1194.57,367Zm223.91,25.76-223.9-.26v-8.49l223.89.24,5.66,8.51Z"
         transform="translate(1 1.06)"
         id="path85" />
    </g>
    <g
       id="SIDE-2"
       data-name="SIDE">
      <path
         class="cls-6"
         d="M1343.53,59.43"
         transform="translate(1 1.06)"
         id="path88" />
      <path
         class="cls-5"
         d="M1272.1,21.38,1286.25,46l-9.65,5.36,9.9,17.2,9.65-5.37,9.9,17.19-9.65,5.37,9.9,17.2,9.65-5.37,9.91,17.2-9.65,5.36,9.89,17.2,9.66-5.37,9.9,17.19-9.65,5.37,9.9,17.2,9.65-5.37,9.91,17.2-9.66,5.36,9.9,17.2,9.66-5.37,9.9,17.19-9.65,5.37,9.9,17.2,9.65-5.37,9.91,17.2-9.66,5.36,9.9,17.2,9.66-5.37,9.9,17.19-9.65,5.37,9.9,17.2,9.65-5.37,9.91,17.2-9.66,5.36,9.9,17.2,9.66-5.37,9.9,17.19-9.65,5.37,9.9,17.2,9.65-5.37,9.91,17.2-9.66,5.36,14.26,24.71,1.58-.09,22.68,0V408.51l28.34,0v11.35h8.5l28.34,0,0-28.34-11.3,0,0-28.34,11.3,0,0-28.34-11.29,0,0-28.34,11.3,0,0-28.34-11.31,0,0-28.35,11.29,0,0-28.35-11.3,0,0-28.35,11.3,0,0-28.35-11.29,0,0-28.35,11.3,0,0-28.35-11.3,0,0-28.35,11.29,0,0-28.35-11.29,0,0-28.35,11.31,0,0-19.85-28.35,0-.06,11.3-28.34,0,0-11.29-28.35,0,0,11.3-28.35,0,.06-11.3-28.35,0,0,11.3-28.35,0,.06-11.3-28.35,0-.05,11.3-28.35,0,.06-11.3L1323.7,3l-.06,11.29-28.35,0,.06-11.3-25.51,0-8.46-.06Zm268.32,366.29-27.64,0-.7-8.5h.7l27.65,0Zm0-25.51v8.51l-35.94,0-.9-8.51h.91Zm0-8.5-47-.05-1.18-8.51h1.19l47,.05Zm0-25.51v8.5l-55.3-.06-1.39-8.51h1.4Zm0-8.51-66.36-.07-1.67-8.51h1.68l66.35.07Zm0-17-74.65-.08-1.88-8.51h1.89l74.65.08Zm0-17-85.7-.09-2.16-8.51h2.17l85.7.09Zm0-17-94-.11-2.38-8.5h2.39l94,.1Zm0-25.51v8.5l-105-.12-2.65-8.5h2.66Zm0-8.5-116.11-.14-2.93-8.5h2.94l116.11.12Zm0-17-124.41-.13-3.14-8.51h3.15l124.41.13Zm0-25.5v8.49l-135.47-.14-3.42-8.51h3.43Zm0-8.51-143.76-.16-3.63-8.5h3.64l143.77.15Zm0-25.51,0,8.5-154.82-.17-3.91-8.51h3.92Zm0-8.5-163.12-.18-4.12-8.51h4.13l163.11.18Zm0-17-174.17-.18-4.4-8.51h4.41l174.17.2Zm0-17-182.47-.2-4.62-8.51h4.63l182.46.19Zm0-17-193.52-.21-4.9-8.51h4.91l193.52.21Zm0-25.51v8.51l-204.58-.23L1331,72.8h5.18Zm0-8.51-212.88-.23-5.38-8.51h5.39l212.88.24ZM1316.87,38.77l223.89.25v8.49l-223.89-.24-5.66-8.51Z"
         transform="translate(1 1.06)"
         id="path90" />
    </g>
  </g>
  <g
     id="LABELS">
    <text
       class="cls-7"
       transform="translate(57.69 78.95)"
       id="text94">SCREEN</text>
    <text
       class="cls-7"
       transform="translate(57.69 531.68)"
       id="text100">B<tspan
   class="cls-8"
   x="15.36"
   y="0"
   id="tspan96">A</tspan><tspan
   x="32.29"
   y="0"
   id="tspan98">CKSIDE</tspan></text>
    <text
       class="cls-7"
       transform="translate(803.12 82.6)"
       id="text102">UNDERSIDE</text>
    <text
       class="cls-7"
       transform="translate(1453.67 445.65)"
       id="text104">SIDES</text>
    <text
       class="cls-7"
       transform="translate(1606.83 265.38) rotate(90)"
       id="text110">F<tspan
   class="cls-9"
   x="13.8"
   y="0"
   id="tspan106">R</tspan><tspan
   x="29.14"
   y="0"
   id="tspan108">ONT</tspan></text>
  </g>
</svg>
